<?xml version="1.0" standalone="no"?><!DOCTYPE svg PUBLIC "-//W3C//DTD SVG 1.1//EN" "http://www.w3.org/Graphics/SVG/1.1/DTD/svg11.dtd"><svg class="icon" height="512" viewBox="0 0 1024 1024" version="1.1" xmlns="http://www.w3.org/2000/svg"><path d="M964.184989 462.759664h-42.553275v477.8815c0 4.797098-0.956065 9.376145-2.666918 13.552639h45.220193c18.769064 0 33.99901 15.582181 33.99901 34.820891s-15.229946 34.837664-33.99901 34.837663l-904.554821 0.016773c-18.769064 0-33.99901-15.598954-33.99901-34.837663 0-19.23871 15.229946-34.820891 33.99901-34.820891h55.569176a35.69309 35.69309 0 0 1-2.666917-13.552639V462.759664H59.630168c-14.257108 0-27.004641-9.124549-31.902377-22.828147a35.391175 35.391175 0 0 1 9.929657-38.578058L489.926472 8.544964a33.378407 33.378407 0 0 1 43.962213 0l452.269024 392.808495a35.391175 35.391175 0 0 1 9.929657 38.578058 34.032556 34.032556 0 0 1-31.902377 22.828147zM856.300611 954.193803a35.69309 35.69309 0 0 1-2.666918-13.552639V462.759664h-136.247637v481.621894c0 3.421706-0.637377 6.675681-1.526349 9.812245h140.440904z m-205.369453 0a35.08926 35.08926 0 0 1-1.543122-9.812245V462.759664H384.792877v477.8815c0 4.813871-0.956065 9.392918-2.683691 13.552639h268.821972z m-473.067629 0.016773l141.598246-0.016773a35.558906 35.558906 0 0 1-2.666918-13.552639V462.759664H180.530447V940.657937c0 4.797098-0.956065 9.376145-2.666918 13.552639zM511.899192 80.786571L152.318145 393.101109h719.178866L511.899192 80.786571z" fill="#e58e58" /></svg>
