<?xml version="1.0" standalone="no"?><!DOCTYPE svg PUBLIC "-//W3C//DTD SVG 1.1//EN" "http://www.w3.org/Graphics/SVG/1.1/DTD/svg11.dtd"><svg class="icon" height="512" viewBox="0 0 1024 1024" version="1.1" xmlns="http://www.w3.org/2000/svg"><path d="M512 0C229.6 0 0 229.6 0 512s228.8 512 512 512c282.4 0 512-229.6 512-512S794.4 0 512 0z m0 984c-76.8 0-149.6-18.4-214.4-52 0 0-0.8-1.6-4.8-3.2-43.2-20.8-91.2-86.4-93.6-106.4-2.4-20.8-2.4-54.4 13.6-68 16-13.6 40.8-48 72.8-102.4 32-54.4-52-65.6-74.4-75.2-22.4-8.8-59.2-61.6-102.4-65.6-43.2-4-27.2 31.2-40.8 42.4-12.8 10.4-18.4 8.8-26.4-4-0.8-11.2-1.6-24.8-1.6-37.6 0-78.4 19.2-152.8 53.6-218.4 18.4-26.4 32.8-23.2 40.8-19.2 4.8 2.4 13.6 15.2 0.8 26.4-13.6 11.2-24.8 50.4 6.4 48 32-2.4 74.4-8 79.2-40.8 4.8-32.8-1.6-39.2 14.4-45.6 16-6.4 29.6 2.4 24.8 22.4-4.8 20.8 0 48 20 52 20.8 4 13.6 27.2 34.4 20 20-7.2 8.8-43.2 24.8-61.6s22.4-27.2 22.4-49.6c0-22.4 12-44.8 37.6-56 24.8-11.2 71.2-3.2 83.2 24 11.2 27.2 41.6 49.6 29.6 59.2-11.2 8.8-36.8 20.8-43.2 29.6-7.2 8.8-18.4 16-38.4 34.4-20.8 18.4-43.2 52-11.2 76.8 32 24.8 49.6 38.4 84 38.4s63.2 27.2 84 40.8c20 13.6 27.2 24.8 33.6 36 7.2 11.2 2.4 40.8 13.6 61.6 11.2 20.8 11.2 63.2 11.2 86.4 0 22.4 8.8 54.4 13.6 75.2 4.8 20.8-8.8 66.4 16 68.8 24.8 2.4 36-14.4 60.8-61.6 24.8-48 36-45.6 52-65.6 16-20.8 20.8-38.4 22.4-59.2 2.4-20.8 27.2-22.4 27.2-61.6 0-38.4 0-40-8.8-60.8-8.8-20.8-22.4-23.2-18.4-43.2 4.8-20.8-4.8-20.8 27.2-36 32-16 54.4-18.4 63.2-40.8s8.8-52 11.2-65.6c2.4-15.2 15.2-25.6 26.4-13.6 28.8 60.8 44.8 128 44.8 200C984 772 772 984 512 984z" fill="#e58e58" /></svg>
