<svg id="Layer_1" data-name="Layer 1" xmlns="http://www.w3.org/2000/svg" viewBox="0 0 91.69 33.16"><defs><style>.cls-1{fill:#272725;}.cls-2{fill:#ee252d;}</style></defs><title>logo-2</title><path class="cls-1" d="M0,24.3V.88H3.52a15.75,15.75,0,0,1,3.75.36A5.83,5.83,0,0,1,9.65,2.47,6.43,6.43,0,0,1,11.21,4.7a6.61,6.61,0,0,1,.59,2.73,5.51,5.51,0,0,1-1.93,4.29,5.66,5.66,0,0,1,3,2.23,6.28,6.28,0,0,1,1.07,3.67A6.27,6.27,0,0,1,12,22.24a6.3,6.3,0,0,1-2.63,1.61,15.27,15.27,0,0,1-4,.44ZM3.54,10.94H4.66a4.11,4.11,0,0,0,2.89-.88,3.38,3.38,0,0,0,.91-2.57A3.19,3.19,0,0,0,7.52,5,3.93,3.93,0,0,0,4.8,4.12H3.54Zm0,10H5.73A5.42,5.42,0,0,0,9.24,20a3.25,3.25,0,0,0,1.19-2.59,3.31,3.31,0,0,0-1.14-2.54q-1.11-1-4-1H3.54Z" transform="translate(0 0)"/><path class="cls-1" d="M67.28,3.93l-2.86,1.7a5,5,0,0,0-1.53-1.82,4.07,4.07,0,0,0-4.4.35,2.58,2.58,0,0,0-1,2.07q0,1.71,2.55,2.76l2.33.93a10,10,0,0,1,4.17,2.81,6.38,6.38,0,0,1,1.33,4.1,7.18,7.18,0,0,1-2.15,5.36,7.39,7.39,0,0,1-5.36,2.14,7.15,7.15,0,0,1-5-1.81,8.33,8.33,0,0,1-2.47-5.1l3.58-.79a6,6,0,0,0,.85,2.85,4,4,0,0,0,5.68.64l.25-.22a3.84,3.84,0,0,0,1.07-2.81,4,4,0,0,0-.18-1.28,2.92,2.92,0,0,0-.59-1,4.56,4.56,0,0,0-1-.9A11,11,0,0,0,61,13.08l-2.26-.94q-4.83-2-4.83-5.94a5.64,5.64,0,0,1,2-4.41A7.28,7.28,0,0,1,61,0,7,7,0,0,1,67.28,3.93Z" transform="translate(0 0)"/><path class="cls-1" d="M91.69,4.19H82.31V9.82h9.11v3.31H82.31V21h9.38v3.32H78.77V.87H91.69Z" transform="translate(0 0)"/><path class="cls-1" d="M32.29.87,21.4,24.26h3.8l2.61-5.69H38.12l2.6,5.69h3.81L33.64.87Zm-3,14.41L33,7.2l3.66,8.08Z" transform="translate(0 0)"/><rect class="cls-2" x="21.4" y="29.84" width="23.14" height="3.32"/></svg>