<svg id="Layer_1" data-name="Layer 1" xmlns="http://www.w3.org/2000/svg" viewBox="0 0 271 271"><defs><style>.cls-1{fill:#2d1711;}.cls-2,.cls-3{fill:#edead9;}.cls-3{font-size:8.54px;font-family:AvenirNext-Bold, Avenir Next;font-weight:700;}</style></defs><title>logo-1</title><rect class="cls-1" width="271" height="271"/><path class="cls-2" d="M115.59,154.74v.7a4.45,4.45,0,0,1-1.07.3c-4.58,1-6.57,2.9-9,5.47A67,67,0,0,1,92.8,172.35a3.18,3.18,0,0,0-1.71,3.21c.18,2.3.21,4.6.32,6.91.16,3,1.32,5.28,4.58,5.53a.2.2,0,0,1,.11,0v1.05c-7.59,0-10.24,0-15.08-.17v-1c.42-.11.71-.15,1.12-.23a3.49,3.49,0,0,0,3.09-3.32c.25-3.59.44-7.19.41-10.79-.07-9.84-.26-19.69-.42-29.53a37.29,37.29,0,0,0-.25-4.1,5,5,0,0,0-4.11-4.7,3.5,3.5,0,0,1-.94-.36v-.65a.11.11,0,0,1,.07,0c3.32-.47,6.64-1,10-1.32C91.31,132.73,91,134,91,134.8c0,4.24,0,8.47,0,12.71q0,10.85.11,21.68c0,.72.11,1.44.21,2.61,5.19-3.5,9.72-7,13.06-11.72,1.63-2.32,1-3.63-1.73-4.21a9.9,9.9,0,0,1-1.56-.48v-.65Z"/><path class="cls-2" d="M213.6,185.85c-3.52,3.6-7.86,4.36-12.57,3.27A7,7,0,0,1,195.5,182c0-4.22,1.76-7.45,5.67-9.31a19.3,19.3,0,0,1,3.81-1.49c.69-.15,2-.18,2.29.56,0,.41.37.25-1.06,1.73s-3,2.67-4,4.31a6.55,6.55,0,0,0,1.08,7.79c1.91,1.95,4.44,2.24,7.4.78a8.61,8.61,0,0,0,5-7.57c.27-5.9.39-11.84.1-17.73a6.62,6.62,0,0,0-9.51-5.53,6.18,6.18,0,0,0-2.54,2.75,25.93,25.93,0,0,0-1.27,4.09,2.8,2.8,0,0,1-3,2.23,3.34,3.34,0,0,1-2.59-3.23c.06-3,2-4.86,4.41-6,5.09-2.36,10.4-2.24,15.64-.45a5.86,5.86,0,0,1,4.22,6c0,5.17-.11,10.34,0,15.5a55.4,55.4,0,0,0,.62,7.62,4.32,4.32,0,0,0,6.32,3.31c.32-.14,0-.65,0-1.09a1.38,1.38,0,0,1,1.63-1.5,2.6,2.6,0,0,1,1.86,1.14,2.06,2.06,0,0,1-1.75,3c-3.72.24-7.45.25-11.18.26-1.7,0-2.56-1.06-2.7-2.74,0-.56-.09-1.21-.23-2.07S214.11,185.33,213.6,185.85Z"/><path class="cls-2" d="M145.88,184.07c-.8.73-1.29,1.15-1.74,1.61-3.5,3.6-7.79,4.56-12.52,3.46-3.88-.9-6-4.06-5.71-8.06A11.12,11.12,0,0,1,136,171.15c.51,0,1.36.24,1.5.75.07.23.12.71-.56,1.34-.92.84-2.17,1.44-2.79,2.44a12.26,12.26,0,0,0-2.12,5c-.45,4.74,3.65,7.73,8.11,6.08a8.23,8.23,0,0,0,5.61-6.23,31.32,31.32,0,0,0,.61-5.55c.08-4,0-8,0-11.94,0-5.54-3.15-8.59-8.16-7.91-2.47.33-3.68,1.88-4.34,4.05-.35,1.13-.54,2.31-1,3.41a2.67,2.67,0,0,1-2.95,2.06,3.29,3.29,0,0,1-2.57-3.25c0-3,1.94-4.91,4.37-6a20.14,20.14,0,0,1,15.81-.33,5.87,5.87,0,0,1,4.07,5.89c0,5.05-.12,10.09-.06,15.13a60.78,60.78,0,0,0,.56,7.63c.44,3.21,1.17,3.73,4.37,3.78.39,0,1.11.09,1.25.68,0,.14.17.41-1.7.75a28.49,28.49,0,0,1-6.32.36c-2.61-.11-3.15-.77-3.56-3.4C146.1,185.48,146,185.05,145.88,184.07Z"/><path class="cls-2" d="M187.54,184.84c0,.38-.73,1.15-1.21,1.61a12,12,0,0,1-10.3,3.3,6.81,6.81,0,0,1-5.94-5.47,21.68,21.68,0,0,1-.75-5.71c.1-6.42.33-12.83.64-19.24.07-1.67-.31-2.39-2.08-2.4-3.17,0-6.35-.18-9.51-.39-2-.13-3.09-1.8-2.2-3.32a2,2,0,0,1,1.75-.95,1.32,1.32,0,0,1,1.05,1.38c-.11,1.34.69,1.3,1.61,1.46,5.73,1,12.76-5.61,13.35-10.79a7.93,7.93,0,0,1,.35-2.08h.9a14,14,0,0,1,.13,1.82c-.19,10.65-.42,21.3-.59,31.94a37.57,37.57,0,0,0,.38,4.84c.68,5.74,5.6,6.57,9.42,4.88C185.43,185.32,187.23,184.05,187.54,184.84Z"/><path class="cls-2" d="M75.45,166.33C75,160,68.39,153.91,61.79,153.67s-13.65,5-15.94,12c-1.08,3-2.76,2.8-4.16,2.32.08-.14.28-.55.36-.69a1.53,1.53,0,0,0-1.47-2,2.23,2.23,0,0,0-2,1.45c-.4,1.29.39,2.25,1.7,2.66a5.08,5.08,0,0,0,1.1.2,11.2,11.2,0,0,0,1.3.07q15.12-.21,30.24-.43C75.37,169.2,75.64,168.84,75.45,166.33Zm-6.1-1.51a3.24,3.24,0,0,1-2.95,2.7,65.11,65.11,0,0,1-7.81.26H52.8c-.84,0-1.5-.21-1.32-1.28.67-4.23,2-8.09,5.93-10.5a7.33,7.33,0,0,1,8.38.31C68.42,158.19,70,162,69.35,164.82Z"/><path class="cls-2" d="M118.71,187.91V189h-9.77l-1,0c-1.72-.05-2.37-1.51-2.74-2.88-.53-1.92-.8-3.9-1.23-5.84a16.73,16.73,0,0,0-3.44-7.55c-1.44-1.67-1.29-3.43.16-4.56s3.16-.71,4.5,1c2.42,3.11,3.59,6.78,4.66,10.5.24.83.47,1.68.65,2.53.73,3.5,2.69,5.51,6.4,5.53A9.21,9.21,0,0,1,118.71,187.91Z"/><path class="cls-2" d="M73.63,184.8c-7,7.16-21.1,7.52-26.95-3.72a9.07,9.07,0,0,1-.34-6.9,2.41,2.41,0,0,1,2.78-2c1.49.19,2,1.15,2.14,2.58a13.55,13.55,0,0,0,5.35,10.26c4.59,3.49,10.84,2.94,15.57-1.2a8.78,8.78,0,0,1,2-1.53C74.38,182.22,75.5,182.72,73.63,184.8Z"/><path class="cls-2" d="M179.21,156.48c-1.58,0-2.93-2.27-.18-2.75a46.55,46.55,0,0,1,6.68,0c2.26.46.88,2.74-.27,2.69A41.63,41.63,0,0,1,179.21,156.48Z"/><path class="cls-2" d="M108.32,124a20.49,20.49,0,0,1-12.65-4.52l-.1-.08-.1-.1c-9-10-7.42-18.69-5.64-23A21.11,21.11,0,0,1,108,83.56c12.75-.69,26.65,14.43,30,18.3,1.07-1.18,2.07-2.31,3-3.35,1.37-1.55,2.55-2.89,3.55-3.92,5.55-5.76,15.43-12.07,25-10.9,6.68.83,12.25,5,16.55,12.53l.08.15,0,.15c3.07,9.85,0,19.35-7.84,24.23-9.05,5.63-21.14,3.32-30.81-5.87l-9.47-8.7c-4.25,4.52-9.44,9.5-15.09,13Q115.27,124,108.32,124ZM97.6,117.16c13.58,10.27,28.32-2.4,38.32-13.08-2.63-3.06-16.26-18.16-27.79-17.53A18.08,18.08,0,0,0,92.59,97.4C90,103.69,91.79,110.71,97.6,117.16ZM140.08,104l9.49,8.71c6.58,6.27,17.64,11.45,27.18,5.52,6.7-4.17,9.23-12.07,6.61-20.64-3.79-6.54-8.58-10.21-14.24-10.91-8.46-1-17.39,4.74-22.47,10-1,1-2.11,2.3-3.46,3.82C142.25,101.56,141.21,102.74,140.08,104Z"/><path class="cls-2" d="M91.2,101.21l-.45-1c4.6-2,5.09-4,6.06-8a53.32,53.32,0,0,1,1.53-5.39,6.54,6.54,0,0,1,3.92-4.43c3.4-1.18,7.24,1.23,7.4,1.34l-.6.94s-3.55-2.22-6.44-1.22a5.51,5.51,0,0,0-3.22,3.74,51.71,51.71,0,0,0-1.5,5.29C96.91,96.52,96.31,99,91.2,101.21Z"/><path class="cls-2" d="M119.18,123a9.43,9.43,0,0,1-4.35-1.18,13.71,13.71,0,0,1-4.78-4.7,5.92,5.92,0,0,0-5-1.7c-2,.32-3.49,1.82-4.31,4.35l-1.07-.35c1.22-3.74,3.5-4.84,5.21-5.1a6.9,6.9,0,0,1,6.11,2.14c1.44,2,2.59,3.45,4.39,4.36a7.14,7.14,0,0,0,6,.64c3.68-1.4,5.6-6,5.81-6.52a5.46,5.46,0,0,1,1-2.25c.55-4.61,2-7.67,4.38-9.07a6.21,6.21,0,0,1,5.18-.47l-.41,1,.2-.52-.2.52a5.16,5.16,0,0,0-4.21.4c-2.06,1.24-3.35,4.06-3.84,8.38l0,.16-.1.13a4.3,4.3,0,0,0-.86,1.9l0,.12c-.09.23-2.12,5.56-6.47,7.23A7.38,7.38,0,0,1,119.18,123Z"/><path class="cls-2" d="M181.81,92.55c0-.06-1.42-6-4.68-7.25-1.29-.48-2.75-.13-4.35,1l-.07,0-.09,0c-.16,0-.46.19-.81.35-2.6,1.2-9.57,4.19-17-1.28l.86-.62c6.91,5.08,13,2.11,15.68.88a8.82,8.82,0,0,1,.85-.37c1.9-1.36,3.69-1.73,5.33-1.12,3.83,1.44,5.32,7.78,5.38,8Z"/><path class="cls-2" d="M155,85.58s-4.17-1.47-3.45-5.55c.15-.72.48-1.23,1.08-.51s1.86,1.59,2.37,2.28.75,1.73.63,3.23Z"/><path class="cls-2" d="M183.25,113.9l-1.1-.21a14.12,14.12,0,0,0-.37-7.36c-.2-.76-.4-1.54-.58-2.47-.8-4,2-7.84,2.14-8l.9.67s-2.64,3.63-1.94,7.11c.18.9.37,1.67.56,2.41A15.2,15.2,0,0,1,183.25,113.9Z"/><path class="cls-2" d="M164.06,121.62l-.89-.69c6.64-8.58,16-3.75,16.12-3.7l-.52,1C178.42,118,170.11,113.79,164.06,121.62Z"/><path class="cls-2" d="M87.8,109a3.53,3.53,0,0,0-4.36.7C85.7,110.32,86.74,110.49,87.8,109Z"/><path class="cls-2" d="M87.65,108.78a3.8,3.8,0,0,1,3.27.85C92.12,110.93,89,112,87.65,108.78Z"/><path class="cls-2" d="M87.29,111.82a4.43,4.43,0,0,0-5,1.23C83.09,113.79,86.76,114.37,87.29,111.82Z"/><path class="cls-2" d="M87,114.29A6.14,6.14,0,0,0,81.57,116C83.3,116.62,87,117.16,87,114.29Z"/><path class="cls-2" d="M87.45,116.16a3.89,3.89,0,0,0-1.9,5.41C86.27,121,88.35,120.08,87.45,116.16Z"/><path class="cls-2" d="M87.67,114.54a4,4,0,0,0,5,2.75C91.92,116.09,90.37,114.1,87.67,114.54Z"/><path class="cls-2" d="M87.8,111.83a3.52,3.52,0,0,1,4.15.66C94.2,114.38,88.52,114.42,87.8,111.83Z"/><path class="cls-2" d="M87.09,109.27c0-.17-.4-4.11,2.12-5.53l.55,1c-1.88,1.06-1.56,4.4-1.55,4.43Z"/><path class="cls-2" d="M184.9,94.65l-.63-.41a29.5,29.5,0,0,0,3.16-6.67c1.11-3.64,2-4.63,2.07-4.67l.54.52s-.85,1-1.89,4.36A29.9,29.9,0,0,1,184.9,94.65Z"/><path class="cls-2" d="M189.48,83.39s0-4.72,5.47-5.69C194.41,80.18,193.66,84.39,189.48,83.39Z"/><path class="cls-2" d="M188.87,85.16s4-1.67,6.69,1.64C193.27,87.5,189.43,88.42,188.87,85.16Z"/><path class="cls-2" d="M187.36,89s4.07-2.16,7.25,1.09C192.25,91,188.27,92.35,187.36,89Z"/><path class="cls-2" d="M188.8,85s-.38-4.32-4.57-5.16C184.68,82.17,185.65,86,188.8,85Z"/><path class="cls-2" d="M187.23,88.67s.69-4.11-5.93-3.92a24.94,24.94,0,0,0,2.22,3.06C184.53,88.88,186.26,89.36,187.23,88.67Z"/><path class="cls-2" d="M186.26,91.54a3,3,0,0,1,2.82.2,9.8,9.8,0,0,1,2.5,2.5s-3,.44-4.62-.79S186.26,91.54,186.26,91.54Z"/><path class="cls-2" d="M184.07,89.46a9.45,9.45,0,0,0-2.65-.47c.17.58.34,1.16.52,1.75A4.73,4.73,0,0,0,184,92c1.95.5,1.95-.54,1.95-.54A2.78,2.78,0,0,0,184.07,89.46Z"/><path class="cls-2" d="M178.68,111.81c.08.16.23.84-2.4,1.08l-2.24.21s-1.14,2.28-7.13-.42c-1-.45-4-2.24-4-2.24h-1.59l.72-1.29a3,3,0,0,1,2.66-2.2c-.19-.68-.42-1-1.41-1.18s.15-1.48-.83-2.73-2-2.39-2-2.39,0-.53,1,0,1.07.91,1.07.91-1.11-1.94-.61-2,1.8,1.28,1.8,1.28l-.45-1.76s.08-.54.82,0a2.57,2.57,0,0,1,.79,1.73,10.14,10.14,0,0,0,.43-1.47c.08-.56.81-.06.73.58a6.22,6.22,0,0,0,.05.9s.17.41.5-.22c.41-.79.51-.87.72-.89s.65.35.59,1.17.41,0,.53-.07.46,0,.61.7.35.29.61.6,1,1.61,1.22,2,.88,1.33,1.56,1.36,1.57-.83,2.34-1.74c.56-.67,3.37-4.68,3.65-4.71s.67.48.25,1.25-.28.59.28.25.23.78-.16,1.11a2.24,2.24,0,0,0-.32.38s.58-.42.69-.13a4.21,4.21,0,0,1-1.48,2.76c-1.43,1.47-5.62,4.33-4.54,5.43C175.49,112.55,178.53,111.52,178.68,111.81Z"/><path class="cls-2" d="M169.59,117.09a1.16,1.16,0,0,1,.42-1.48,6.49,6.49,0,0,1,1-.52h0l.63-.22a.39.39,0,0,0,.24-.31,9.12,9.12,0,0,1,.28-1.36h-.06a.2.2,0,0,0-.19-.07c-.51.09-1,.19-1.52.3l-.08,0,0,0c-.16-.12-1.07,0-1,.12s.65.26,1,.43.71.45.71.46-.59.32-.63.35c-.38.25-1.11.7-1.48.93a.5.5,0,0,0-.22.41v1.3Z"/><path class="cls-2" d="M174.08,112.93a.18.18,0,0,0-.2-.07c-.5.09-1,.18-1.51.29a.19.19,0,0,0-.09,0l0,0c-.15-.11-.3.07-.26.23a2.5,2.5,0,0,1,.23.23c.26.19.75.54.74.56s-.59.32-.63.34l-1.42.91a.58.58,0,0,0-.28.5v.77l.87-.26a1,1,0,0,1,.49-1.12,5.63,5.63,0,0,1,1-.51h0l.66-.24a.33.33,0,0,0,.21-.26,9.25,9.25,0,0,1,.28-1.39Z"/><path class="cls-2" d="M109.8,212.85a5.41,5.41,0,0,1-2.27.45,6,6,0,0,1-2.15-.38,5,5,0,0,1-2.86-2.78,5.67,5.67,0,0,1-.41-2.17,5.55,5.55,0,0,1,.42-2.19,5,5,0,0,1,1.16-1.67,5.12,5.12,0,0,1,1.74-1.06,6,6,0,0,1,2.15-.37,6.12,6.12,0,0,1,2.1.37,4.05,4.05,0,0,1,1.67,1.11l-1.65,1.65a2.16,2.16,0,0,0-.9-.7,3,3,0,0,0-1.14-.23,3,3,0,0,0-1.17.24,2.75,2.75,0,0,0-.92.65,2.83,2.83,0,0,0-.6,1,3.53,3.53,0,0,0-.21,1.23,3.62,3.62,0,0,0,.21,1.26,2.87,2.87,0,0,0,.59,1,2.59,2.59,0,0,0,.91.64,2.88,2.88,0,0,0,1.15.22,2.7,2.7,0,0,0,1.27-.28,2.4,2.4,0,0,0,.86-.74l1.7,1.59A4.8,4.8,0,0,1,109.8,212.85Z"/><path class="cls-2" d="M126.53,208a5.72,5.72,0,0,1-.41,2.18,5.06,5.06,0,0,1-1.15,1.7,5.19,5.19,0,0,1-1.74,1.09,6.31,6.31,0,0,1-2.2.38,6.16,6.16,0,0,1-2.18-.38,5.19,5.19,0,0,1-1.74-1.09,5.06,5.06,0,0,1-1.15-1.7,5.72,5.72,0,0,1-.41-2.18,5.66,5.66,0,0,1,.41-2.19,4.89,4.89,0,0,1,1.15-1.66,5.26,5.26,0,0,1,1.74-1,6.16,6.16,0,0,1,2.18-.37,6.31,6.31,0,0,1,2.2.37,5.26,5.26,0,0,1,1.74,1,4.89,4.89,0,0,1,1.15,1.66A5.66,5.66,0,0,1,126.53,208Zm-2.61,0a3.53,3.53,0,0,0-.21-1.23,2.87,2.87,0,0,0-.59-1,2.68,2.68,0,0,0-.91-.64,3,3,0,0,0-2.35,0,2.78,2.78,0,0,0-.91.64,2.87,2.87,0,0,0-.59,1,3.78,3.78,0,0,0-.2,1.23,3.7,3.7,0,0,0,.21,1.26,3.07,3.07,0,0,0,.59,1,2.64,2.64,0,0,0,.9.64,2.85,2.85,0,0,0,1.17.24,2.78,2.78,0,0,0,1.17-.24,2.68,2.68,0,0,0,.91-.64,2.92,2.92,0,0,0,.6-1A3.7,3.7,0,0,0,123.92,208Z"/><path class="cls-2" d="M134.24,205v2.08h3.91v2h-3.91V213h-2.4V203h6.63V205Z"/><path class="cls-2" d="M146.15,205v2.08h3.9v2h-3.9V213h-2.41V203h6.64V205Z"/><path class="cls-2" d="M155.64,213V203h6.78V205H158v1.91h4.19v2H158V211h4.69V213Z"/><path class="cls-2" d="M168,213V203h6.78V205h-4.43v1.91h4.18v2h-4.18V211H175V213Z"/><text class="cls-3" transform="translate(233.9 189.08)">.inc</text></svg>