<svg id="Layer_1" data-name="Layer 1" xmlns="http://www.w3.org/2000/svg" viewBox="0 0 448 448"><defs><style>.cls-1{fill:#e58e58;}</style></defs><title>icon-7</title><path class="cls-1" d="M194,373.33a110.86,110.86,0,0,0-54.79-90.05L87.58,226a27.88,27.88,0,0,0-27.85-8.56V119.47a29.87,29.87,0,1,0-59.73,0V260.79a67.46,67.46,0,0,0,8.46,32.65L74.67,412.6v27.93A7.46,7.46,0,0,0,82.13,448H186.67a7.46,7.46,0,0,0,7.46-7.47v-67.2ZM179.2,433.07H89.6v-22.4a7.44,7.44,0,0,0-.94-3.63L21.51,286.17a52.51,52.51,0,0,1-6.58-25.38V119.47a14.94,14.94,0,1,1,29.87,0V226.64a28.38,28.38,0,0,0,.5,37.58l61.17,67.3,11.06-10-61.18-67.3A13.58,13.58,0,0,1,76,235.43c.17.17.34.35.5.53l52.36,58.18a10.68,10.68,0,0,0,2.24,1.72,95.66,95.66,0,0,1,48.11,82.89Z"/><path class="cls-1" d="M418.13,89.6a29.86,29.86,0,0,0-29.86,29.87v97.94a29.35,29.35,0,0,0-7.41-.88A28.25,28.25,0,0,0,360.42,226l-51.57,57.3a110.61,110.61,0,0,0-54.8,90.07h-.18v67.2a7.46,7.46,0,0,0,7.46,7.47H365.87a7.46,7.46,0,0,0,7.46-7.47V412.59l65.39-118.52A67.2,67.2,0,0,0,448,260V119.47A29.87,29.87,0,0,0,418.13,89.6ZM433.07,260a52.51,52.51,0,0,1-7.32,26.68L359.3,407.06a7.46,7.46,0,0,0-.9,3.61v22.4H268.8V378.75a95.82,95.82,0,0,1,48.49-83.07,7.62,7.62,0,0,0,1.86-1.49L371.51,236a13.58,13.58,0,1,1,20.16,18.21l-61.2,67.29,11.06,10.07,61.17-67.29a28.37,28.37,0,0,0,.5-37.59V119.47a14.94,14.94,0,1,1,29.87,0V260Z"/><path class="cls-1" d="M313.6,186.67H298.67a82.06,82.06,0,0,0-67.2,35.09v-50h7.46A82.23,82.23,0,0,0,321.07,89.6a7.48,7.48,0,0,0-7.47-7.47H298.67a82,82,0,0,0-67.2,35.1v-50h7.46A59.81,59.81,0,0,0,298.67,7.47,7.47,7.47,0,0,0,291.2,0H276.27A59.72,59.72,0,0,0,224,30.88,59.72,59.72,0,0,0,171.73,0H156.8a7.47,7.47,0,0,0-7.47,7.47A59.81,59.81,0,0,0,209.07,67.2h7.46v50a82,82,0,0,0-67.2-35.1H134.4a7.48,7.48,0,0,0-7.47,7.47,82.23,82.23,0,0,0,82.14,82.13h7.46v50a82.06,82.06,0,0,0-67.2-35.09H134.4a7.47,7.47,0,0,0-7.47,7.46,82.25,82.25,0,0,0,82.14,82.14h7.46V336h14.94V276.27h7.46a82.25,82.25,0,0,0,82.14-82.14A7.47,7.47,0,0,0,313.6,186.67Zm-14.93-89.6h7.05a67.29,67.29,0,0,1-66.79,59.73h-7.05A67.29,67.29,0,0,1,298.67,97.07Zm-22.4-82.14h6.84a44.88,44.88,0,0,1-44.18,37.34h-6.84A44.88,44.88,0,0,1,276.27,14.93Zm-67.2,37.34a44.88,44.88,0,0,1-44.18-37.34h6.84a44.88,44.88,0,0,1,44.18,37.34Zm0,104.53a67.29,67.29,0,0,1-66.79-59.73h7.05a67.29,67.29,0,0,1,66.79,59.73Zm0,104.53a67.29,67.29,0,0,1-66.79-59.73h7.05a67.29,67.29,0,0,1,66.79,59.73Zm29.86,0h-7.05a67.29,67.29,0,0,1,66.79-59.73h7.05A67.29,67.29,0,0,1,238.93,261.33Z"/></svg>
