<svg id="Layer_1" data-name="Layer 1" xmlns="http://www.w3.org/2000/svg" viewBox="0 0 507.18 512"><defs><style>.cls-1{fill:#e58e58;}</style></defs><title>icon-11</title><path class="cls-1" d="M501.89,246.9a7.5,7.5,0,0,0-3.55-4.36c-21.69-12-48.58-17.39-78.37-15.88a159.52,159.52,0,0,0,10.56-47.16c2.26-36.2-9.52-67.15-33.19-87.16S341.2,65.87,305.88,74.12c-24.9,5.82-49.14,18.52-70.41,36.62-1.37-2-2.8-4.08-4.3-6-2-2.69-4.16-5.38-6.28-8A308.81,308.81,0,0,0,180.44,52,7.5,7.5,0,0,0,171,63.67a294,294,0,0,1,42.28,42.5c2,2.49,4,5,6,7.61q2.67,3.52,5.06,7.25-1.53,1.52-3,3.08l-.16.16a194.84,194.84,0,0,0-40.6,62.09c-.31.77-.62,1.54-.92,2.32-2.08-.51-4.15-1-6.23-1.34L154.9,164.61c5-7.89,19.07-33.2,18.27-64.46a7.5,7.5,0,0,0-15,.39c.59,23-8.09,42.24-13.34,51.68L118.1,119.31c5.36-9.22,15.71-30.46,15.05-56.22a7.5,7.5,0,0,0-15,.39c.46,18.07-5.66,33.88-10.32,43.2L82.23,75.16a7.5,7.5,0,0,0-11.64,9.45l25.63,31.55c-10,2.66-26.72,5.41-44.42,1.23A7.5,7.5,0,0,0,48.35,132a98.16,98.16,0,0,0,22.49,2.55,115.79,115.79,0,0,0,35.62-5.77l26.74,32.9c-10.32,3.21-30.91,7.77-53.32,2.48a7.5,7.5,0,1,0-3.45,14.59A106.83,106.83,0,0,0,101,181.53a126.18,126.18,0,0,0,42.3-7.46l9.38,11.55-1.43,0a97.74,97.74,0,0,0-33.93,7.41,102.8,102.8,0,0,0-39.9,30.09c-1.1-1.31-2.2-2.64-3.28-4C46.33,185,27.33,146.92,19.17,109.09c-7.47-34.7-4.88-66.76,7.28-90.71,34.68-9.39,78.62.81,121.12,28.25A7.5,7.5,0,0,0,155.71,34C108.26,3.4,58.47-7.22,19.1,4.89a7.49,7.49,0,0,0-4.36,3.54C-16.52,65,3.11,155.59,62.47,228.66c1.92,2.37,3.9,4.72,5.88,7a142.41,142.41,0,0,0-12.63,25.59C42,297.63,41,340.89,53,383.1s35.63,78.48,66.47,102.12c23,17.66,48.1,26.78,72.65,26.78a97.13,97.13,0,0,0,26.73-3.73,99.31,99.31,0,0,0,42.56-25c17.79,12.38,37.86,19.32,58.44,20.1,30.43,1.16,58.38-12.69,81.51-31.48a335.48,335.48,0,0,0,54.11-55.22,7.5,7.5,0,1,0-11.88-9.16,320.54,320.54,0,0,1-51.69,52.74c-20.7,16.82-44.09,29.18-71.48,28.13a94.12,94.12,0,0,1-49-16.4A133.43,133.43,0,0,0,289,441.89c13.41,7.24,36.8,17,65.27,17,5,0,10.65-1.49,10.49-7.73a7.5,7.5,0,0,0-7.69-7.3c-28.21.72-51.65-10-62.84-16.24.81-2.56,1.56-5.16,2.25-7.78l30.88-25.09c7.8,5,34.5,20.24,67.95,20.24,4.9,0,10.3-1.72,10.1-7.73a7.52,7.52,0,0,0-7.69-7.3c-26.21.67-47.94-9.53-58-15.25L377,354.4c9.49,5.59,31.8,16.71,59.15,16.71,4.88,0,10-1.87,9.87-7.73a7.48,7.48,0,0,0-7.69-7.3c-20.63.53-38.59-6.7-48.74-11.9L425,315.38a7.5,7.5,0,0,0-9.45-11.65L380.1,332.55a107.82,107.82,0,0,1-3.47-39.41l.63-.65a198.88,198.88,0,0,0,35.89-50.31c28.78-2.65,54.65,1.5,75.25,12,10.13,37-.12,84.06-28.38,129.65a7.5,7.5,0,1,0,12.74,7.9C504.06,341.31,514.68,288.5,501.89,246.9ZM194.28,192.33a184,184,0,0,1,44.65-64.56l0,0c44-41,101.37-53.87,139.57-30.52q-2.22,1.29-4.35,2.6l-.33.2c-25.6,15.76-46.53,37.52-60.16,64.41a.37.37,0,0,1-.05.11c-15.24,30.47-24.84,63.71-46.2,90.85l-.24.3a176.73,176.73,0,0,0-39.78-43.31,136.79,136.79,0,0,0-33.49-19.15Zm15.15,302.85c-26.43,5.64-54.91-2-80.81-21.87-28.3-21.69-50-55.19-61.17-94.32C52.39,326.11,60,273.83,83.73,239.66c.08-.1.17-.2.25-.31,10.14-14.48,23-25.3,37.58-31.77l0,.64c-3.09,46.78,14,91.08,39.68,129.41,27.23,40.57,45.58,86.35,47.86,135.52Q209.58,484.15,209.43,495.18ZM255,468.27a6.4,6.4,0,0,0-.41.5,87.14,87.14,0,0,1-30.09,21.65q0-9.29-.45-18.55c-1.28-25.91-5.87-51.34-14.91-75.69-1.53-4.11-3.17-8.19-4.92-12.21-8.32-19.19-18.87-37.34-30.51-54.7-14.75-22-28.87-44.76-34.34-71-3.77-18.13-4-36.83-2.36-55.22,0-.16,0-.33.05-.5l.59-.13A87.33,87.33,0,0,1,182.08,205c55.77,17.63,90.94,76.39,101.51,130.9C293.5,387,282.52,437.7,255,468.27ZM300.8,397a201.74,201.74,0,0,0-1.24-57c.62-.17,1.24-.36,1.86-.54q4.08-1.2,8.08-2.62a134.18,134.18,0,0,0,8.34,46.27Zm29.42-23.9a120.35,120.35,0,0,1-5.54-42.5c0-.26,2.22-1.08,2.44-1.2a176.12,176.12,0,0,0,24.77-15c3.16-2.27,6.25-4.66,9.26-7.13a126.66,126.66,0,0,0,6.39,35.49ZM401.37,232a181,181,0,0,1-66.08,75.59,151.36,151.36,0,0,1-34.93,16.52c-.22.07-3.68,1.18-3.7,1.12A222.47,222.47,0,0,0,288,296.7a213.88,213.88,0,0,0-12.58-27.34l.36-.45c25.53-30.71,35.57-69.65,54.63-104q.1-.19.21-.36c13.83-24.85,36.06-43.61,60.65-57.29l.12-.06C420.54,135.47,423.28,185.21,401.37,232Z" transform="translate(0 0)"/></svg>
