<svg id="Layer_1" data-name="Layer 1" xmlns="http://www.w3.org/2000/svg" viewBox="0 0 422 395.62"><defs><style>.cls-1{fill:#e58e58;}</style></defs><title>icon-4</title><path class="cls-1" d="M409.64,49.45H220.41a37.13,37.13,0,0,0-35-24.72,36.75,36.75,0,0,0-13.67,2.62A37.05,37.05,0,0,0,111.27,9.48,37.05,37.05,0,0,0,50.76,27.35a36.75,36.75,0,0,0-13.67-2.62A37.13,37.13,0,0,0,0,61.82V185.45a37.09,37.09,0,0,0,49.45,35v39.21a37.14,37.14,0,0,0,24.73,35v39.22a12.39,12.39,0,0,0,5.51,10.29l74.17,49.45a12.36,12.36,0,0,0,13.72,0l67.32-44.88,67.32,44.88a12.36,12.36,0,0,0,13.72,0l74.18-49.45a12.38,12.38,0,0,0,5.5-10.29V259.63a12.35,12.35,0,0,0-5.5-10.29l-68.67-45.78V136a12.36,12.36,0,0,0-5.51-10.29l-3.11-2.08h96.81A12.36,12.36,0,0,0,422,111.27V61.82A12.36,12.36,0,0,0,409.64,49.45ZM173.09,61.82a12.36,12.36,0,1,1,24.72,0v49.45a12.36,12.36,0,0,1-24.72,0ZM123.63,37.09a12.37,12.37,0,0,1,24.73,0V136a12.37,12.37,0,0,1-24.73,0Zm-49.45,0a12.37,12.37,0,0,1,24.73,0V136a12.37,12.37,0,0,1-24.73,0ZM24.73,61.82a12.36,12.36,0,1,1,24.72,0v49.45a12.36,12.36,0,0,1-24.72,0ZM86.54,272a12.38,12.38,0,0,1-12.36-12.36V185.45a12.37,12.37,0,0,0-24.73,0,12.36,12.36,0,0,1-24.72,0V146.23a37,37,0,0,0,26-.49,37.05,37.05,0,0,0,60.51,17.87A37,37,0,0,0,148.36,171v39.22a12.37,12.37,0,0,1-24.73,0,12.36,12.36,0,1,0-24.72,0v49.45A12.38,12.38,0,0,1,86.54,272Zm136,55.2L160.72,368.4,98.91,327.19v-32.6a37.13,37.13,0,0,0,24.72-35V245.15a37.06,37.06,0,0,0,43.94-15.55l55,36.65ZM370.9,266.25v60.94L309.08,368.4l-61.81-41.21V266.25L309.08,225ZM296.72,142.61v60.95L234.9,244.77l-61.81-41.21V146.22a36.69,36.69,0,0,0,12.36,2.14,37.14,37.14,0,0,0,35-24.73h47.84Zm100.55-43.7H222.54V74.18H397.27Z"/></svg>
