<svg id="Layer_1" data-name="Layer 1" xmlns="http://www.w3.org/2000/svg" viewBox="0 0 480 483.31"><defs><style>.cls-1{fill:#e58e58;}</style></defs><title>icon-10</title><path class="cls-1" d="M352,467.31v-64h32a56.06,56.06,0,0,0,56-56v-8H408a56.07,56.07,0,0,0-56,56v-72h32a56.06,56.06,0,0,0,56-56v-8H408a56.07,56.07,0,0,0-56,56v-72h32a56.06,56.06,0,0,0,56-56v-8H408a56.07,56.07,0,0,0-56,56V182.62l7.51-7.51a56.28,56.28,0,0,0,0-79.59h0L344,80,328.49,95.51a56.28,56.28,0,0,0,0,79.59h0l7.51,7.52v52.69a56.07,56.07,0,0,0-56-56H248v8a56.07,56.07,0,0,0,56,56h32v72a56.07,56.07,0,0,0-56-56H248v8a56.06,56.06,0,0,0,56,56h32v72a56.07,56.07,0,0,0-56-56H248v8a56.06,56.06,0,0,0,56,56h32v64H144v-64h32a56.06,56.06,0,0,0,56-56v-8H200a56.07,56.07,0,0,0-56,56v-72h32a56.06,56.06,0,0,0,56-56v-8H200a56.07,56.07,0,0,0-56,56v-72h32a56.06,56.06,0,0,0,56-56v-8H200a56.07,56.07,0,0,0-56,56v-72h32a56.06,56.06,0,0,0,56-56v-8H200a56.07,56.07,0,0,0-56,56V102.62l7.51-7.51a56.28,56.28,0,0,0,0-79.59h0L136,0,120.49,15.51a56.28,56.28,0,0,0,0,79.59h0l7.51,7.52v52.69a56.07,56.07,0,0,0-56-56H40v8a56.06,56.06,0,0,0,56,56h32v72a56.07,56.07,0,0,0-56-56H40v8a56.06,56.06,0,0,0,56,56h32v72a56.07,56.07,0,0,0-56-56H40v8a56.06,56.06,0,0,0,56,56h32v72a56.07,56.07,0,0,0-56-56H40v8a56.06,56.06,0,0,0,56,56h32v64H0v16H480v-16Zm56-112h15.2a40.07,40.07,0,0,1-39.2,32H368.8A40.08,40.08,0,0,1,408,355.31Zm0-80h15.2a40.07,40.07,0,0,1-39.2,32H368.8A40.08,40.08,0,0,1,408,275.31Zm0-80h15.2a40.07,40.07,0,0,1-39.2,32H368.8A40.08,40.08,0,0,1,408,195.31Zm-104,32a40.07,40.07,0,0,1-39.2-32H280a40.08,40.08,0,0,1,39.2,32Zm0,80a40.07,40.07,0,0,1-39.2-32H280a40.08,40.08,0,0,1,39.2,32Zm0,80a40.07,40.07,0,0,1-39.2-32H280a40.08,40.08,0,0,1,39.2,32Zm-104-32h15.2a40.07,40.07,0,0,1-39.2,32H160.8A40.08,40.08,0,0,1,200,355.31Zm0-80h15.2a40.07,40.07,0,0,1-39.2,32H160.8A40.08,40.08,0,0,1,200,275.31Zm0-80h15.2a40.07,40.07,0,0,1-39.2,32H160.8A40.08,40.08,0,0,1,200,195.31Zm0-80h15.2a40.07,40.07,0,0,1-39.2,32H160.8A40.08,40.08,0,0,1,200,115.31Zm-104,32a40.07,40.07,0,0,1-39.2-32H72a40.08,40.08,0,0,1,39.2,32Zm0,80a40.07,40.07,0,0,1-39.2-32H72a40.08,40.08,0,0,1,39.2,32Zm0,80a40.07,40.07,0,0,1-39.2-32H72a40.08,40.08,0,0,1,39.2,32Zm0,80a40.07,40.07,0,0,1-39.2-32H72a40.08,40.08,0,0,1,39.2,32ZM136,88l-4.2-4.2a40.29,40.29,0,0,1,0-57l4.2-4.2,4.2,4.2a40.29,40.29,0,0,1,0,57Zm208,80-4.2-4.2a40.29,40.29,0,0,1,0-57l4.2-4.2,4.2,4.2a40.29,40.29,0,0,1,0,57Z" transform="translate(0 0)"/></svg>
