<svg id="Layer_1" data-name="Layer 1" xmlns="http://www.w3.org/2000/svg" viewBox="0 0 561.44 561.85"><defs><style>.cls-1{fill:#3e2217;}</style></defs><title>icon-3</title><path class="cls-1" d="M523.18,255.82c-24-24-55.91-36.3-90.26-37.89a236.49,236.49,0,0,0,1.82-27.68C434.74,85.34,365.65,0,280.72,0s-154,85.34-154,190.25a238.52,238.52,0,0,0,1.8,27.68c-34.33,1.59-66.26,13.9-90.25,37.89-59.7,59.71-48.28,168.28,25.47,242,42,41.95,95.15,63.73,144.24,63.73,26.21,0,51.16-6.35,72.66-19,21.82,13,46.87,19.32,73,19.32,49.3,0,102.32-22.28,144.06-64C571.45,424.1,582.88,315.53,523.18,255.82Zm-12.81,12.81c.06.06.1.13.16.19-15.2,16.48-21.57,28.23-27.69,39.62-7.3,13.55-15.57,28.91-37.84,51.19s-37.65,30.57-51.22,37.88c-13.07,7-26.58,14.3-47,34.75-1.14,1.13-2.13,2.22-3.21,3.33a165.7,165.7,0,0,0-.31-25c17.35-15.75,29.87-22.55,41.94-29.06,13.07-7,26.58-14.3,47-34.74s27.69-33.92,34.71-47c6.25-11.63,13.37-24.7,29.73-42.6A107.29,107.29,0,0,1,510.37,268.63ZM480.7,247.82c-16.17,18.22-23.63,32-29.76,43.44-7,13-13,24.21-31.56,42.75s-29.79,24.59-42.8,31.6c-10.37,5.59-21.9,11.87-36.44,23.76-6.81-32.67-22.63-65.49-47.12-94.25.32-.34.63-.68,1-1C349.58,238.51,426.22,221.5,480.7,247.82ZM306.75,77.25c3.79-12.6,8.37-27.91,9.75-52.88,57.6,20,100.12,86.67,100.12,165.88a216.89,216.89,0,0,1-1.95,27.84c-32.77,2.08-66.78,13.6-97.74,34.13,0-.55,0-1.05,0-1.6,0-34.18-5.41-52.25-10.2-68.22-4.24-14.15-7.91-26.36-7.91-52.6S302.5,91.38,306.75,77.25ZM272,66.83c3.79-12.59,7.67-25.65,8.49-48.7h.19a107.36,107.36,0,0,1,17.82,1.66c-1,24.88-5.29,39.42-9.15,52.26-4.25,14.21-8.67,28.89-8.67,57.76s4.42,43.6,8.69,57.82c4.42,14.75,9.43,31.48,9.43,63,0,5.32-.19,10.37-.48,15.25-5.89,4.83-11.67,9.89-17.19,15.42-.16.15-.3.32-.46.47-.15-.15-.28-.32-.43-.47-.48-.48-1-.9-1.49-1.37a202,202,0,0,0,1.93-29.3c0-28.91-4.41-43.61-8.68-57.83-4.43-14.75-9.44-31.48-9.44-63S267.61,81.58,272,66.83Zm-9.71-46.94c-.9,19.21-4.18,30.23-7.65,41.75-4.78,15.94-10.19,34-10.19,68.16S249.9,182,254.69,198c4.25,14.15,7.91,26.36,7.91,52.61,0,5.17-.16,10-.46,14.52-35.32-28.66-76.24-44.57-115.37-47a218.7,218.7,0,0,1-1.94-27.84C144.83,103.26,196.09,31.32,262.33,19.89ZM136.11,235.56c44.32,0,92.9,20.07,131.37,58.54,61,61,75.6,147.49,37.25,202.07-12.42-13.81-17.8-23.73-23.4-34.11-7.89-14.65-16.84-31.26-41-55.43s-40.78-33.12-55.47-41c-13-7-24.23-13-42.78-31.6s-24.57-29.75-31.57-42.74c-6.13-11.41-13.6-25.25-29.83-43.53C97.48,239.62,116.35,235.56,136.11,235.56ZM76.55,485C15.5,424,.94,337.53,39.29,283c12.42,13.8,17.79,23.71,23.36,34.07,7.89,14.65,16.83,31.26,41,55.41s40.77,33.11,55.45,41c13,7,24.23,13,42.8,31.6s24.6,29.79,31.6,42.8c6.14,11.39,13.61,25.23,29.78,43.44C208.78,557.63,132.15,540.62,76.55,485Zm216.38,25.47a107.29,107.29,0,0,1-13.74,11.39c-16.36-17.91-23.49-31-29.75-42.61-7-13.06-14.3-26.58-34.74-47s-34-27.72-47-34.75c-13.56-7.3-28.92-15.59-51.21-37.87S85.9,322,78.6,308.43c-6.12-11.37-12.49-23.12-27.69-39.61l.16-.18A108.14,108.14,0,0,1,64.8,257.22c16.4,17.93,23.51,31,29.75,42.62,7,13.05,14.29,26.56,34.71,47s34,27.71,47,34.75c13.56,7.3,28.91,15.58,51.21,37.88s30.57,37.65,37.88,51.23c6.13,11.39,12.51,23.15,27.71,39.64ZM484.9,485c-55.55,55.55-132.27,73.66-187.73,46,2.94-2.45,5.83-5,8.58-7.7a127.62,127.62,0,0,0,31-51.12l.16.11c5.74-8.88,12.94-17.53,22.64-27.22,18.56-18.56,29.8-24.61,42.82-31.62,14.66-7.9,31.27-16.84,55.44-41s33.09-40.76,41-55.43c5.57-10.34,10.93-20.24,23.35-34C560.51,337.53,546,424,484.9,485Z" transform="translate(0 0)"/></svg>
