<svg id="Layer_1" data-name="Layer 1" xmlns="http://www.w3.org/2000/svg" viewBox="0 0 376.4 473.64"><defs><style>.cls-1{fill:#e58e58;}</style></defs><title>icon-8</title><path class="cls-1" d="M137.72,425.19a9,9,0,0,0-2.8-4.23C89.84,382.82,93.08,343.87,96.6,302.58c3.42-40.48,6.94-82.4-36.07-121.35a9,9,0,0,0-9-1.9c-22.81,7.13-39.58,27.59-47.24,57.8A181,181,0,0,0,9.33,333.6c19.11,61.12,63.11,105.48,105.12,105.48a58,58,0,0,0,17.31-2.61A9,9,0,0,0,137.72,425.19Zm-110.9-97A162.87,162.87,0,0,1,22,241.55c5.5-21.55,16.14-36.61,30.29-43.19,32.28,31.83,29.48,64.73,26.24,102.69s-6.68,79.52,30,119.55C76.67,416.27,42.32,378,26.82,328.19Z" transform="translate(0 0)"/><path class="cls-1" d="M327.13,231.09a64.18,64.18,0,0,0-42.55-14.61c-27.05,0-56.71,12.71-83.58,34.44-25.78-60.22-73.57-95-114.86-82.31a9,9,0,0,0-3.34,15.32c36.07,33,33.54,67,30.21,106.48-2.89,33.81-5.77,68.7,17.49,103.59a64.17,64.17,0,0,0,21.18,41.38,9,9,0,0,0,14.79-5.58c8.29-58.52,43.1-76.46,79.88-95.39,36.06-18.57,73.57-37.78,83.76-94.94A9,9,0,0,0,327.13,231.09ZM131,291.85H131c3-36.06,6.13-72.66-22.9-107.65,29.12,2.89,60.76,34.08,78.53,79.34q-6.59,6.4-12.72,13.53a185.71,185.71,0,0,0-41.11,78.62A187.29,187.29,0,0,1,131,291.85Zm107.47,26.78c-33.81,17.4-71.32,36.24-85.83,88.72v-.09A71.62,71.62,0,0,1,149,366.5a162.91,162.91,0,0,1,38.68-77.71c28.76-33.54,65.9-54.1,96.92-54.1a47.77,47.77,0,0,1,27,7.22C301.8,286.08,272.32,301.23,238.51,318.63Z" transform="translate(0 0)"/><path class="cls-1" d="M354.45,254.17a9.35,9.35,0,0,0-14.79,5.68c-9,48.41-39,64-74.2,82.13-37.41,19.2-79.88,41-89.52,108.91A9,9,0,0,0,179,459a64.18,64.18,0,0,0,42.56,14.6c36.06,0,78.43-23.26,110.53-60.67a181.2,181.2,0,0,0,42.83-86.65C379.78,295.55,372.57,270.13,354.45,254.17Zm2.7,69.24-.09.09a162.84,162.84,0,0,1-38.67,77.71c-28.76,33.54-65.91,54.1-96.92,54.1a47.76,47.76,0,0,1-27.05-7.39c9.65-54.1,43.37-72.13,79.07-90.16,31.91-16.41,64.82-33.36,79.07-76.46A70.44,70.44,0,0,1,357.15,323.41Z" transform="translate(0 0)"/><path class="cls-1" d="M120.58,3a9,9,0,1,0-13.41,12,7.74,7.74,0,0,0,1,.93c24.25,23.26,15.78,35.43,3.06,54.09-11.63,16.86-27.67,40-4,71.86a9,9,0,0,0,14.42-10.82c-16-21.37-7.48-33.81,4.42-50.94C139.33,60.87,155.92,37,120.58,3Z" transform="translate(0 0)"/><path class="cls-1" d="M199.56,30a9,9,0,0,0-12.44,13c24.25,23.26,15.77,35.43,3.06,54.09-11.72,16.86-27.86,40-4.06,71.86a9,9,0,0,0,14.43-10.82c-16.05-21.37-7.48-33.81,4.42-50.94C218.31,87.92,234.9,64,199.56,30Z" transform="translate(0 0)"/><path class="cls-1" d="M278.36,57.08a9,9,0,0,0-12.45,13c24.26,23.27,15.78,35.44,3.07,54.1-11.72,16.86-27.77,40-4.06,71.86a9,9,0,0,0,14.44-10.81h0c-16.05-21.37-7.48-33.81,4.42-50.94C297.11,115,313.7,91.07,278.36,57.08Z" transform="translate(0 0)"/></svg>
