<svg id="Layer_1" data-name="Layer 1" xmlns="http://www.w3.org/2000/svg" viewBox="0 0 358 358"><defs><style>.cls-1{fill:#e58e58;}</style></defs><title>icon-5</title><path class="cls-1" d="M346.48,114.34C357.87,57.43,358,12.38,358,10.49A10.48,10.48,0,0,0,347.51,0c-1.89,0-46.94.13-103.85,11.52a504.6,504.6,0,0,0-57.47,14.9l-.36.11Q168.36,32.24,152.51,39a318.86,318.86,0,0,0-36.13,18.17,10.6,10.6,0,0,0-1,.59A236.56,236.56,0,0,0,68.64,93.56,138.47,138.47,0,0,0,61.5,281.67L3.07,340.1A10.49,10.49,0,0,0,17.9,354.93L76.33,296.5a138.47,138.47,0,0,0,188.11-7.14,236.47,236.47,0,0,0,35.78-46.76c.21-.32.41-.65.59-1A319.7,319.7,0,0,0,319,205.49q6.78-15.84,12.5-33.35l.09-.3A505.12,505.12,0,0,0,346.48,114.34ZM247.37,32.16a599.12,599.12,0,0,1,89.35-10.88,599,599,0,0,1-10.88,89.35,491.49,491.49,0,0,1-12,47.72H214.48l61-61a10.49,10.49,0,1,0-14.83-14.83l-61,61V44.2A491.49,491.49,0,0,1,247.37,32.16Zm38,194.05H146.62l46.88-46.88H306.72A327.62,327.62,0,0,1,285.41,226.21ZM178.67,51.28V164.49l-46.88,46.89V72.59A328.24,328.24,0,0,1,178.67,51.28ZM49.06,191.46a116.71,116.71,0,0,1,34.41-83.07,201.55,201.55,0,0,1,27.34-22.71V232.35L76.39,266.78A116.57,116.57,0,0,1,49.06,191.46Zm200.55,83.07a117.49,117.49,0,0,1-158.39,7.08l34.42-34.42H272.32A200.81,200.81,0,0,1,249.61,274.53Z" transform="translate(0 0)"/></svg>
