<svg id="Layer_1" data-name="Layer 1" xmlns="http://www.w3.org/2000/svg" viewBox="0 0 408 410.93"><defs><style>.cls-1{fill:#e58e58;}</style></defs><title>icon-12</title><path class="cls-1" d="M407.45,102.26a6.8,6.8,0,0,0-8.93-3.56l-9,3.86a92.83,92.83,0,0,0-5.37-54.3C371.46,16.63,337.74,1.4,335.85.59h-.05A7.17,7.17,0,0,0,334.52.3a5,5,0,0,0-3.81.16h0a5.69,5.69,0,0,0-.52.33,6.38,6.38,0,0,0-1.64,1,6.44,6.44,0,0,0-.75,1,6.06,6.06,0,0,0-.73.94c-.78,1.52-18.9,37.72-6,69.85a97.79,97.79,0,0,0,25.8,37,60.42,60.42,0,0,0,9,6.4l-31.68,13.6A34,34,0,0,0,268.8,94.06h0a34,34,0,0,0,10.41,55.76l-12.74,5.44c-5.58,2.4-11.1,4.94-16.59,7.56a33.89,33.89,0,1,0-45.19,21.07,36.36,36.36,0,0,0,4,1.21q-13.49,8.16-26.38,17.28a33.93,33.93,0,1,0-66.63-8.26v.06a34,34,0,0,0,34,33.16c.18,0,.35-.05.52-.05q-14.41,12.17-27.81,25.48a34,34,0,0,0-67.91,2.55v.06a34,34,0,0,0,34,33.16c.56,0,1.12-.15,1.69-.17-1.26,1.55-2.55,3.07-3.8,4.64l-18.43,23.2a33.94,33.94,0,1,0-67.86.3v.06a34,34,0,0,0,34,33.17,34,34,0,0,0,8.16-1.11L1.48,399.91a6.81,6.81,0,1,0,10.67,8.45l17.68-22.31c9.53,16.36,44.39,24.88,79,24.88,42.64,0,89.81-27,91.8-28.11a6.79,6.79,0,0,0,0-11.77c-2-1.15-49.16-28.11-91.8-28.11a178.07,178.07,0,0,0-50,6.62l30.87-38.92a33.69,33.69,0,0,0,32.72,25.5,36.31,36.31,0,0,0,5.2-.49,7.18,7.18,0,0,0,1.31-.13A34.09,34.09,0,0,0,156,296.87v0a33.62,33.62,0,0,0-30.13-28.37q8.37-8.64,17.17-16.82a33.86,33.86,0,0,0,33.71,36.9,36.31,36.31,0,0,0,5.2-.49,6.4,6.4,0,0,0,1.31-.13,34.08,34.08,0,0,0,27.13-38.64v0a33.63,33.63,0,0,0-30.36-28.41q12.64-9.45,25.9-18a33.88,33.88,0,0,0,32,44.89,36.31,36.31,0,0,0,5.21-.49,6.4,6.4,0,0,0,1.31-.13,34.08,34.08,0,0,0,27.13-38.64v0a33.88,33.88,0,0,0-26.81-28q13.27-6.76,26.95-12.66l2.93-1.25A34,34,0,0,0,306,213.74a36.31,36.31,0,0,0,5.21-.49,6.4,6.4,0,0,0,1.31-.13,34.08,34.08,0,0,0,27.13-38.64v0A33.21,33.21,0,0,0,317.94,148l85.94-36.84A6.8,6.8,0,0,0,407.45,102.26Zm-124.17-1.87A19.53,19.53,0,0,1,286.75,99c.28-.08.56-.18.85-.25a21.12,21.12,0,0,1,9.62,0c.28.07.55.16.82.24a20.32,20.32,0,0,1,3.52,1.36l.68.35a14.19,14.19,0,0,1-19.64,0ZM272,118.54a20.59,20.59,0,0,1,1.51-7.67,27.09,27.09,0,0,0,37.78,0A20.4,20.4,0,1,1,272,118.54Zm-57.72,13.92c.5-.08,1-.1,1.51-.14a20.45,20.45,0,0,1,3.32,0l.75.07a13.61,13.61,0,0,1-18.14,7.53c.17-.22.36-.43.54-.64a19.84,19.84,0,0,1,2.43-2.33c.35-.29.68-.6,1.07-.87a18.57,18.57,0,0,1,8.54-3.55Zm-15.52,27.88a20.39,20.39,0,0,1-1.55-7.63,26.88,26.88,0,0,0,9.9,1.93,27.22,27.22,0,0,0,10.5-2.1,26.93,26.93,0,0,0,14.5-14.28,20.39,20.39,0,1,1-33.35,22.14Zm-68.67,27.34a18.08,18.08,0,0,1,1.19-3.12c.2-.43.39-.85.61-1.26a18.77,18.77,0,0,1,6.27-6.8c.38-.25.78-.46,1.18-.68a19.18,19.18,0,0,1,3.1-1.48,7.66,7.66,0,0,1,.72-.27,13.61,13.61,0,0,1-13.27,14.44,5.67,5.67,0,0,1,.21-.81Zm5.7,20.64a20,20,0,0,1-4.66-6.36,27,27,0,0,0,25.63-27.73,20.4,20.4,0,0,1-6.31,39.51,20.76,20.76,0,0,1-14.66-5.4ZM14.5,310.09A19.64,19.64,0,0,1,15.69,307c.2-.42.39-.85.62-1.25a18.58,18.58,0,0,1,6.26-6.8,11.61,11.61,0,0,1,1.18-.68,18.42,18.42,0,0,1,3.1-1.49c.23-.09.47-.18.72-.26A13.59,13.59,0,0,1,14.29,310.9,8,8,0,0,1,14.5,310.09Zm5.7,20.65a20.08,20.08,0,0,1-4.65-6.36,27,27,0,0,0,25.62-27.74,20.4,20.4,0,0,1-6.31,39.5A20.88,20.88,0,0,1,20.2,330.74Zm25.78,53H167.11a163.6,163.6,0,0,1-58.3,13.6C78.43,397.33,55.68,390.53,46,383.73Zm121.1-13.6H46c9.7-6.8,32.45-13.6,62.83-13.6A163.92,163.92,0,0,1,167.08,370.13ZM68.9,248.89a18.72,18.72,0,0,1,1.19-3.12c.2-.42.38-.85.61-1.25a18.77,18.77,0,0,1,6.27-6.8c.38-.25.78-.47,1.17-.68a19.74,19.74,0,0,1,3.11-1.49c.23-.09.47-.18.72-.26A13.59,13.59,0,0,1,68.69,249.7,6.45,6.45,0,0,1,68.9,248.89Zm5.7,20.65a20.16,20.16,0,0,1-4.66-6.36,27,27,0,0,0,25.63-27.74,20.4,20.4,0,0,1-6.32,39.5A20.72,20.72,0,0,1,74.6,269.54ZM136,317.31a12.46,12.46,0,0,1-1.05.84A19.51,19.51,0,0,1,132,320l-.68.36a13.59,13.59,0,0,1,11.28-16.06,5.63,5.63,0,0,1-.11.81,20.45,20.45,0,0,1-.78,3.29c-.15.43-.27.88-.44,1.3a18.4,18.4,0,0,1-5.32,7.58ZM118.89,282a20.23,20.23,0,0,1,15.24,3.4,20.57,20.57,0,0,1,5.43,5.65A27.1,27.1,0,0,0,117.86,322a20.24,20.24,0,0,1-12.69-30.55c1.36-1.63,2.79-3.23,4.18-4.85A20.24,20.24,0,0,1,118.89,282Zm71.47-12.32c-.33.29-.68.56-1.05.83a20.05,20.05,0,0,1-2.88,1.88l-.68.37A13.6,13.6,0,0,1,197,256.73a4.5,4.5,0,0,1-.11.81,19.44,19.44,0,0,1-.78,3.29c-.14.44-.26.88-.43,1.31a18.56,18.56,0,0,1-5.33,7.58Zm3.57-26.24a27.11,27.11,0,0,0-21.7,30.91,20.4,20.4,0,1,1,21.7-30.91Zm57.63-14.56a12.36,12.36,0,0,1-1.05.83,21,21,0,0,1-2.88,1.89L247,232a13.6,13.6,0,0,1,11.27-16.07,4.74,4.74,0,0,1-.11.82,20.59,20.59,0,0,1-.78,3.28c-.14.44-.26.88-.43,1.31a18.59,18.59,0,0,1-5.33,7.58Zm3.57-26.23a27.1,27.1,0,0,0-21.7,30.91,20.4,20.4,0,1,1,21.7-30.91Zm64.43-7.77c-.34.3-.69.56-1.06.83a19.06,19.06,0,0,1-2.88,1.89l-.68.36a13.6,13.6,0,0,1,11.28-16.07,6,6,0,0,1-.11.82,20.59,20.59,0,0,1-.78,3.28c-.14.44-.27.88-.44,1.31a18.4,18.4,0,0,1-5.32,7.58Zm3.57-26.23a27.09,27.09,0,0,0-21.7,30.91,20.38,20.38,0,1,1,21.7-30.9ZM371.51,53.32A76.68,76.68,0,0,1,376,100.49L346.46,22.81A73.66,73.66,0,0,1,371.51,53.32ZM333.63,68.49a68.36,68.36,0,0,1-.43-42.29l30.3,79.71a46.66,46.66,0,0,1-7.82-5.57A85.07,85.07,0,0,1,333.63,68.49Z" transform="translate(0 0)"/></svg>
