<svg id="Layer_1" data-name="Layer 1" xmlns="http://www.w3.org/2000/svg" viewBox="0 0 318 429.85"><defs><style>.cls-1{fill:#e58e58;}</style></defs><title>icon-6</title><path class="cls-1" d="M313,263A306.6,306.6,0,0,0,207.68,128.08a62.87,62.87,0,0,0-8-88l.82-.82a47.86,47.86,0,0,1,34.09-14.12,12.6,12.6,0,0,0,0-25.19,72.88,72.88,0,0,0-51.9,21.5l-6.18,6.18a62.6,62.6,0,0,0-35,0l-6.18-6.18A72.89,72.89,0,0,0,83.44,0a12.6,12.6,0,0,0,0,25.19,47.86,47.86,0,0,1,34.09,14.12l.82.81a62.88,62.88,0,0,0-8,88A306.6,306.6,0,0,0,5,263c-13.47,33.69,2.3,63.61,23.92,78.33a63.32,63.32,0,0,0,35.68,11.29,59.36,59.36,0,0,0,21.63-4.08c13.9,29.05,35.67,48.29,60.19,53.22v15.54a12.59,12.59,0,0,0,25.18,0V401.72c24.52-4.93,46.29-24.17,60.19-53.21a59.54,59.54,0,0,0,21.62,4.07,63.33,63.33,0,0,0,35.69-11.29C310.71,326.57,326.48,296.65,313,263ZM121.22,88.15a37.78,37.78,0,1,1,65.24,25.92c-6.89-4.14-14-8.06-21.2-11.68-.64-.15-4.94-3.68-12.52,0q-10.87,5.43-21.2,11.68A37.79,37.79,0,0,1,121.22,88.15Zm10,214.09h55.5a146.78,146.78,0,0,0,17,25.19H114.23A146.78,146.78,0,0,0,131.25,302.24Zm11.6-25.19a359.07,359.07,0,0,0,15.06-49.5c.38-1.59.74-3.19,1.09-4.78.35,1.59.71,3.19,1.09,4.78a359.07,359.07,0,0,0,15.06,49.5ZM43.08,320.47c-12.32-8.38-23.56-26-14.71-48.15A281.55,281.55,0,0,1,145.74,134.9a525.44,525.44,0,0,1-12.35,86.91C122.83,267,107.53,300,89.14,317.34,73.46,332.12,54.53,328.26,43.08,320.47ZM159,377.8c-15.31,0-30-9.22-41.34-25.19h82.68C189,368.58,174.31,377.8,159,377.8Zm115.92-57.33c-10.92,7.43-27.14,11-41.77.42l-.1-.08a43.47,43.47,0,0,1-4.19-3.47c-8.48-8-16.3-19.34-23.31-33.66l0,0c-8.17-16.73-15.23-37.52-20.92-61.83a525.44,525.44,0,0,1-12.35-86.91A281.55,281.55,0,0,1,289.63,272.32C298.47,294.44,287.24,312.09,274.92,320.47Z" transform="translate(0 0)"/></svg>
