<svg id="Layer_1" data-name="Layer 1" xmlns="http://www.w3.org/2000/svg" viewBox="0 0 448.25 447.33"><defs><style>.cls-1{fill:#e58e58;}</style></defs><title>icon-9</title><path class="cls-1" d="M442.4,253.7c-30.16-20.47-52.66,7.77-143.58,81.63H214.93a6.92,6.92,0,0,1-6.93-6.92c0-6.53,2.85-9.08,6.93-9.08h51.84c17.68,0,37.47-11.52,37.47-32,0-21.76-19.79-32-37.47-32-32.5,0-55.89,2.32-71-5.76a95,95,0,0,0-43.3-10.25c-26.43,0-50.1,10.54-66.32,27.17L0,351.33l96,96,32-32H290a65.86,65.86,0,0,0,43.75-16.63L443.49,275.63C450.19,269.68,449.81,258.74,442.4,253.7ZM322.5,387.28a49.83,49.83,0,0,1-32.47,12H121.38L96,424.67,22.72,351.39l74.9-73.74c13.84-14.18,33.84-22.32,54.86-22.32a79.41,79.41,0,0,1,35.74,8.33c18,9.62,37.11,7.65,78.55,7.65.21,0,21.47.18,21.47,16,0,10.91-12.82,16-21.47,16H214.93c-12,0-22.93,8.95-22.93,25.07a22.92,22.92,0,0,0,22.93,22.93H304.5c95.58-77.65,108.24-94.79,126.54-85.78Z" transform="translate(0 0)"/><path class="cls-1" d="M324,128.1a42.84,42.84,0,0,0-35.25,19.6c-5.49,7.84-9.2,22.11-6.53,32.76A97.25,97.25,0,0,0,267.36,195c1.47-34.18,3.7-55.58,6.27-71.49,18.63.5,36.47-15.87,45.65-33.58,18.8-33.63,10.08-68.13,7.28-89.89-14.69,14.3-78.83-2.46-104.27,41.12-11.23,19.25-7.92,44.29,3.85,59.82,5.73,7.56,17.56,14.76,23.84,17.78-3.55,19.86-6.56,47.73-8,101.76a15.92,15.92,0,0,0,15.86,16.35H258a16.12,16.12,0,0,0,14.6-10.24,72.48,72.48,0,0,1,20.12-27.31c9.24,9.86,19.88,14.38,31.05,14.38,15.78,0,32.43-9.4,44.18-29.71,11-18.94,15.87-23.95,16-24.08C370.83,154,348.66,128.1,324,128.1Zm-71.71-26.32c-5.28-3.11-10.9-7.25-13.36-10.5-7.49-9.89-11-28-2.79-42.1,12.18-20.88,38.21-23.4,61.17-25.64,5.73-.56,11.18-1.09,16.26-1.91,2.41,18.51,3.26,39.91-8.45,60.9-6.29,12.16-18.74,25.28-32.19,24.91-.34-26,4.7-48.91,15.23-66.53C270,47.12,257.55,72.94,252.26,101.78Zm101.88,74.14c-8,13.81-19,21.73-30.33,21.73-10.66,0-15.59-5.28-22.27-12.43A93.05,93.05,0,0,1,343,164.42a94.68,94.68,0,0,0-45.34,11c-1-5.78,1.31-14.48,4.59-19.2A27.09,27.09,0,0,1,324,144.06c12.42,0,27.46,12.36,37.38,19.91C359.25,167.3,356.85,171.23,354.14,175.92Z" transform="translate(0 0)"/><path class="cls-1" d="M225.07,150.83a40.16,40.16,0,0,0-36.53-22.49c-11.61,0-24.48,4.52-37,14.72-17,13.79-23.38,16.73-23.54,16.8,11.2,11.2,24,48.76,51.91,52.92a42.59,42.59,0,0,0,32.78-7.63c6.93-4.7,16.21-16.46,17.75-27.76A44.37,44.37,0,0,0,225.07,150.83Zm-21.93,41.49A26.72,26.72,0,0,1,182.26,197c-13.57-2-24.36-21.22-31.64-32.91,3.14-2.34,6.77-5.15,11-8.58,9-7.28,18.29-11.13,26.93-11.13,12.81,0,21.81,8.65,25,20.36a94.27,94.27,0,0,0-45.33-1.18A94.61,94.61,0,0,1,214.4,175.7C213.36,181.79,207.38,189.42,203.14,192.32Z" transform="translate(0 0)"/></svg>
